<svg xmlns="http://www.w3.org/2000/svg" viewBox="0 0 512 512" role="img" aria-labelledby="title">
<title>Ready Coast Prep lighthouse shield logo</title>
<defs>
  <linearGradient id="wave" x1="0" y1="0" x2="1" y2="1">
    <stop offset="0" stop-color="#3aa7ff"/>
    <stop offset="1" stop-color="#0b5fa8"/>
  </linearGradient>
</defs>
<path d="M256 28 430 94v136c0 116-68 204-174 254C150 434 82 346 82 230V94Z" fill="#07192b" stroke="#f4f7fb" stroke-width="18" stroke-linejoin="round"/>
<path d="M127 157 227 178v-38L127 117Z" fill="#f6b92f"/>
<path d="M385 157 285 178v-38l100-23Z" fill="#f6b92f"/>
<path d="M220 150h72l-8 51h-56Z" fill="#f4f7fb"/>
<path d="M239 109h34l18 24h-70Z" fill="#f4f7fb"/>
<rect x="232" y="158" width="48" height="31" rx="4" fill="#07192b"/>
<path d="M229 201h54l26 168H203Z" fill="#f4f7fb"/>
<path d="M247 214h18v132h-18Z" fill="#d8e1eb"/>
<path d="M159 366c32-34 68-38 101-9 27 24 55 28 94-2-17 49-52 80-98 102-45-21-78-51-97-91Z" fill="url(#wave)"/>
<path d="M147 389c37-26 75-24 110 5 34 29 67 29 107 3-21 42-55 69-108 92-47-21-83-48-109-100Z" fill="#0d75c7" opacity=".9"/>
<path d="M145 347c34-26 64-22 92 1-38-6-57 9-77 29Z" fill="#f4f7fb"/>
</svg>